<svg width="200" height="200" viewBox="0 0 200 200" fill="none" xmlns="http://www.w3.org/2000/svg">
<path opacity="0.5" d="M26.4296 156.903C36.1928 166.667 51.9062 166.667 83.3332 166.667L131.25 166.62C153.216 166.39 165.451 165.023 173.57 156.904C183.333 147.141 183.333 131.427 183.333 100C183.333 68.5732 183.333 52.8597 173.57 43.0966C165.451 34.9772 153.115 33.5635 131.149 33.3333H83.3332C51.9062 33.3333 36.1928 33.3333 26.4296 43.0964C16.6665 52.8596 16.6665 68.573 16.6665 100C16.6665 131.427 16.6665 147.141 26.4296 156.903Z" fill="white"/>
<path fill-rule="evenodd" clip-rule="evenodd" d="M125 10.4167C128.452 10.4167 131.25 13.2149 131.25 16.6667V33.3799V166.62V183.333C131.25 186.785 128.452 189.583 125 189.583C121.548 189.583 118.75 186.785 118.75 183.333V16.6667C118.75 13.2149 121.548 10.4167 125 10.4167Z" fill="white"/>
<path d="M56.8152 64.8944C59.3149 64.5827 62.3691 64.583 65.6986 64.5833H84.3017C87.6309 64.583 90.685 64.5827 93.185 64.8944C95.9242 65.2361 98.8434 66.035 101.353 68.2656C101.782 68.6461 102.188 69.0515 102.568 69.4797C104.798 71.9898 105.598 74.9096 105.939 77.6485C106.251 80.1482 106.251 83.2023 106.25 86.5317V86.875C106.25 90.3267 103.452 93.125 100 93.125C96.5484 93.125 93.75 90.3267 93.75 86.875C93.75 83.0873 93.7384 80.8276 93.535 79.1957C93.3317 77.5638 91.6375 77.2983 91.6375 77.2983C90.0059 77.0947 87.7458 77.0834 83.9584 77.0834H81.2501V122.917H91.6667C95.1184 122.917 97.9167 125.715 97.9167 129.167C97.9167 132.618 95.1184 135.417 91.6667 135.417H58.3334C54.8816 135.417 52.0834 132.618 52.0834 129.167C52.0834 125.715 54.8816 122.917 58.3334 122.917H68.7501V77.0834H66.0417C62.2539 77.0834 59.9943 77.0947 58.3624 77.2983C58.3624 77.2983 56.6686 77.5638 56.465 79.1957C56.2614 80.8276 56.2501 83.0873 56.2501 86.875C56.2501 90.3267 53.4519 93.125 50.0001 93.125C46.5483 93.125 43.7501 90.3267 43.7501 86.875L43.75 86.5317C43.7497 83.2023 43.7494 80.1482 44.0611 77.6485C44.4028 74.9096 45.2017 71.9898 47.4323 69.4797C47.8128 69.0515 48.2182 68.6461 48.6464 68.2656C51.1565 66.035 54.0763 65.2361 56.8152 64.8944Z" fill="white"/>
</svg>
